<?xml version="1.0" encoding="UTF-8" standalone="no"?>
<!-- Created with Inkscape (http://www.inkscape.org/) -->

<svg xmlns:dc="http://purl.org/dc/elements/1.1/" xmlns:cc="http://creativecommons.org/ns#" xmlns:rdf="http://www.w3.org/1999/02/22-rdf-syntax-ns#"
    xmlns="http://www.w3.org/2000/svg" xmlns:sodipodi="http://sodipodi.sourceforge.net/DTD/sodipodi-0.dtd"
    xmlns:inkscape="http://www.inkscape.org/namespaces/inkscape" width="48" height="48" viewBox="0 0 48 48.000001"
    id="svg4160" version="1.1" inkscape:version="0.92.2 5c3e80d, 2017-08-06" sodipodi:docname="twistoast_flat_square.svg"
    inkscape:export-filename="/Users/outadoc/dev/mobile/android-studio/Twistoast-android/assets/twistoast_flat_square.png"
    inkscape:export-xdpi="1024" inkscape:export-ydpi="1024">
  <sodipodi:namedview
     id="base"
     pagecolor="#ffffff"
     bordercolor="#666666"
     borderopacity="1.0"
     inkscape:pageopacity="0.0"
     inkscape:pageshadow="2"
     inkscape:zoom="15.839192"
     inkscape:cx="24.694528"
     inkscape:cy="26.010139"
     inkscape:document-units="px"
     inkscape:current-layer="layer1"
     showgrid="false"
     units="px"
     inkscape:window-width="1680"
     inkscape:window-height="941"
     inkscape:window-x="0"
     inkscape:window-y="1"
     inkscape:window-maximized="1" />
  <defs
     id="defs4162">
    <clipPath
       id="clipPath11272"
       clipPathUnits="userSpaceOnUse">
      <circle
         r="22.878796"
         cy="23.999983"
         cx="24"
         id="circle11274"
         style="fill:#28cdf1;fill-opacity:1" />
    </clipPath>
    <clipPath
       id="clipPath11276"
       clipPathUnits="userSpaceOnUse">
      <circle
         r="22.878796"
         cy="23.999983"
         cx="24"
         id="circle11278"
         style="fill:#28cdf1;fill-opacity:1" />
    </clipPath>
    <clipPath
       clipPathUnits="userSpaceOnUse"
       id="clipPath6233">
      <circle
         style="fill:#28cdf1;fill-opacity:1"
         id="circle6235"
         cx="24"
         cy="23.999983"
         r="22.878796" />
    </clipPath>
    <clipPath
       clipPathUnits="userSpaceOnUse"
       id="clipPath6237">
      <circle
         style="fill:#28cdf1;fill-opacity:1"
         id="circle6239"
         cx="24"
         cy="23.999981"
         r="25.314011" />
    </clipPath>
    <clipPath
       clipPathUnits="userSpaceOnUse"
       id="clipPath6241">
      <circle
         style="fill:#28cdf1;fill-opacity:1"
         id="circle6243"
         cx="24"
         cy="23.999981"
         r="25.314011" />
    </clipPath>
    <filter
       inkscape:collect="always"
       style="color-interpolation-filters:sRGB"
       id="filter4604"
       x="-0.0264"
       width="1.0528"
       y="-0.0264"
       height="1.0528">
      <feGaussianBlur
         inkscape:collect="always"
         stdDeviation="10.156074"
         id="feGaussianBlur4606" />
    </filter>
  </defs>
  <metadata
     id="metadata4165">
    <rdf:RDF>
      <cc:Work
         rdf:about="">
        <dc:format>image/svg+xml</dc:format>
        <dc:type
           rdf:resource="http://purl.org/dc/dcmitype/StillImage" />
        <dc:title></dc:title>
      </cc:Work>
    </rdf:RDF>
  </metadata>
  <g
     inkscape:groupmode="layer"
     id="layer2"
     inkscape:label="shadow">
    <circle
       transform="matrix(0.04774798,0,0,0.04774798,-0.44696543,-0.63716175)"
       r="461.63971"
       cy="515.98334"
       cx="512"
       id="path4138-2"
       style="display:inline;fill:#585858;fill-opacity:1;filter:url(#filter4604)" />
  </g>
  <g
     inkscape:label="circle"
     inkscape:groupmode="layer"
     id="layer1"
     transform="translate(0,-1004.3622)"
     style="display:inline">
    <circle
       cy="1028.3623"
       cx="23.999998"
       id="path4138"
       style="display:none;fill:#37c3e2;fill-opacity:1;stroke:#0093b4;stroke-width:0.01;stroke-miterlimit:4;stroke-dasharray:none;stroke-opacity:1"
       r="22.042362" />
    <rect
       style="fill:#37c3e2;fill-opacity:1;stroke:none;stroke-width:1.068066"
       id="rect894"
       width="48.04538"
       height="47.919109"
       x="0"
       y="1004.443" />
  </g>
  <g
     inkscape:groupmode="layer"
     id="layer3"
     inkscape:label="bus">
    <path
       transform="matrix(0.87075746,0,0,0.87075746,3.1018192,3.1018195)"
       clip-path="url(#clipPath6241)"
       id="path4730"
       d="m 36.953897,15.951993 c -0.257212,-2.514586 -0.666951,-4.472456 -1.315184,-5.242016 -2.672657,-3.164203 -21.394431,-3.3957641 -23.520077,0 -0.519974,0.831958 -0.884648,2.782892 -1.129381,5.246175 -0.789665,0.09291 -1.4046194,0.757772 -1.4046194,1.571705 v 3.080314 c 0,0.684977 0.4340034,1.262492 1.0399434,1.487815 -0.14351,4.851687 -0.02703,9.913444 0.187886,12.430803 0,1.94331 1.305476,1.620928 1.305476,1.620928 h 1.223669 v 2.097913 c 0,0.831956 0.857607,1.505146 1.91419,1.505146 1.05797,0 1.915578,-0.67319 1.915578,-1.505146 v -2.097913 h 14.236147 v 2.097913 c 0,0.831956 0.856914,1.505146 1.914884,1.505146 1.056584,0 1.914193,-0.67319 1.914193,-1.505146 v -2.097913 h 0.402111 c 0,0 1.536345,0.21076 1.634793,-0.70439 0,-2.510427 0.158072,-8.07413 0.02773,-13.325849 0.644074,-0.201748 1.114128,-0.795211 1.114128,-1.509307 V 17.527857 C 38.416061,16.694512 37.771295,16.018548 36.9539,15.951993 Z M 16.690923,11.161314 h 14.375502 v 2.174871 H 16.690923 Z m 0.205216,22.509255 c -1.128685,0 -2.043143,-0.915154 -2.043143,-2.04384 0,-1.127992 0.914458,-2.04245 2.043143,-2.04245 1.128687,0 2.043837,0.914458 2.043837,2.04245 0,1.128686 -0.914457,2.04384 -2.043837,2.04384 z m 14.093328,0 c -1.127992,0 -2.044529,-0.915154 -2.044529,-2.04384 0,-1.127992 0.915844,-2.04245 2.044529,-2.04245 1.128688,0 2.043147,0.914458 2.043147,2.04245 6.91e-4,1.128686 -0.914459,2.04384 -2.043147,2.04384 z M 33.58725,24.727045 H 14.170099 V 14.542522 H 33.58725 Z"
       inkscape:connector-curvature="0"
       style="fill:#ffffff;fill-opacity:1;stroke:none;stroke-opacity:1" />
    <path
       style="display:none;opacity:0.128;fill:#000000;fill-opacity:1;stroke:none;stroke-opacity:1"
       d="m 24.001953,10.0625 c -4.772272,-0.02616 -9.48278,0.690064 -10.443359,2.224609 -0.469952,0.751923 -0.798342,2.513921 -1.019532,4.740235 -0.713699,0.08397 -1.269531,0.686243 -1.269531,1.421875 v 2.783203 c 0,0.470919 0.228443,0.883363 0.578125,1.144531 0.08493,0.114483 0.186063,0.213879 0.300782,0.298828 0.01696,0.02263 0.04035,0.03898 0.05859,0.06055 -0.122491,4.335749 -0.02,8.828695 0.171875,11.076172 0,0.836773 0.26839,1.201195 0.548828,1.361328 0.08839,0.135355 0.188942,0.233962 0.294922,0.294922 0.08839,0.135355 0.188942,0.233962 0.294922,0.294922 0.08806,0.134064 0.187603,0.232362 0.292969,0.292969 0.08719,0.13216 0.184929,0.228725 0.289062,0.289062 0.08707,0.132554 0.184927,0.230421 0.289063,0.291016 0.083,0.125935 0.176429,0.219083 0.27539,0.279297 v 0.257812 c 0,0.388148 0.209813,0.734701 0.541016,0.982422 0.08199,0.109365 0.180622,0.209925 0.296875,0.296875 0.0812,0.107839 0.178386,0.206977 0.292969,0.292969 0.08145,0.10826 0.177891,0.208673 0.292969,0.294922 0.08105,0.107135 0.176953,0.205528 0.291015,0.291015 0.08035,0.106206 0.176245,0.202156 0.289063,0.28711 0.08064,0.106731 0.175656,0.205732 0.289062,0.291015 0.08024,0.105612 0.174716,0.202587 0.28711,0.28711 0.07993,0.104756 0.173537,0.201216 0.285156,0.285156 0.07892,0.103426 0.171406,0.198084 0.28125,0.28125 0.07965,0.104696 0.173877,0.201189 0.285156,0.285156 0.0788,0.102835 0.169877,0.198516 0.279297,0.28125 0.0781,0.10167 0.169263,0.195346 0.277344,0.277344 0.07832,0.102266 0.170675,0.196888 0.279297,0.279297 0.07823,0.101645 0.169131,0.195397 0.277343,0.277343 0.07791,0.1008 0.167948,0.194028 0.275391,0.275391 0.07642,0.09865 0.164749,0.189496 0.269531,0.269531 0.07792,0.101192 0.167744,0.195675 0.275391,0.277344 0.07609,0.09757 0.163675,0.18832 0.267578,0.267578 0.07591,0.09775 0.16378,0.188132 0.267578,0.267578 0.07689,0.09919 0.165936,0.191137 0.271485,0.271485 0.07472,0.0954 0.160327,0.183851 0.261718,0.261719 0.07525,0.09671 0.163046,0.186845 0.265625,0.265624 0.07571,0.0969 0.162449,0.186805 0.265625,0.265626 0.07437,0.09457 0.159141,0.182487 0.259766,0.259765 0.07437,0.09457 0.159141,0.182487 0.259766,0.259766 0.07406,0.09417 0.157713,0.182733 0.257812,0.259765 0.07333,0.09301 0.157077,0.179583 0.255859,0.25586 0.07281,0.09235 0.155987,0.17804 0.253907,0.253906 0.07401,0.09406 0.157807,0.182806 0.257812,0.259766 0.07188,0.0902 0.154059,0.173713 0.25,0.248046 0.07245,0.09152 0.154797,0.176679 0.251953,0.251954 0.07126,0.08963 0.151079,0.17403 0.246094,0.248046 0.07262,0.09168 0.154546,0.178538 0.251953,0.253907 0.07077,0.08822 0.152222,0.16921 0.246094,0.242187 0.07089,0.0888 0.149887,0.172671 0.24414,0.246094 0.07067,0.08831 0.150337,0.171067 0.244141,0.244141 0.07029,0.08748 0.149153,0.169711 0.242188,0.242187 0.06893,0.08578 0.1455,0.1669 0.236328,0.238281 0,0 0.002,0 0.002,0 0.06914,0.08624 0.147026,0.168518 0.238281,0.240235 0.06895,0.08583 0.149356,0.168814 0.240235,0.240234 0.06776,0.08377 0.145654,0.164398 0.234374,0.234375 0.06936,0.08593 0.146924,0.166871 0.238282,0.238281 0.06755,0.08283 0.142363,0.161227 0.230468,0.230469 0.06624,0.08155 0.140394,0.158105 0.226563,0.226563 0.06889,0.0857 0.145571,0.166956 0.236328,0.238281 0.06475,0.0792 0.13708,0.153904 0.220703,0.220703 0.06592,0.08186 0.14256,0.157785 0.228516,0.226562 0.06629,0.08215 0.142045,0.159575 0.228516,0.228516 0.0651,0.08016 0.138271,0.15513 0.222656,0.222656 0.0651,0.08016 0.138272,0.15513 0.222656,0.222657 0.06454,0.07946 0.137207,0.153645 0.220703,0.220703 0.06425,0.0791 0.135708,0.153886 0.21875,0.220703 0.0626,0.07689 0.134439,0.147611 0.214844,0.212891 0.0654,0.08103 0.137599,0.158371 0.222656,0.226562 0.06211,0.07549 0.133541,0.144794 0.212891,0.208984 0.06243,0.07655 0.132791,0.14786 0.21289,0.212891 0.06073,0.07446 0.129557,0.143444 0.207032,0.207031 0.064,0.07929 0.135901,0.153682 0.21875,0.220703 0.06023,0.07307 0.128655,0.140629 0.205078,0.203125 0.06073,0.07446 0.129556,0.143445 0.207031,0.207032 0.06043,0.07411 0.128049,0.143692 0.205078,0.207031 0.05848,0.07154 0.125222,0.137709 0.199219,0.199219 0.05962,0.07373 0.129065,0.14191 0.205078,0.205078 0.05999,0.07385 0.12862,0.141869 0.205078,0.205078 0.06002,0.07328 0.12685,0.142359 0.203125,0.205078 0.05596,0.06773 0.121444,0.128818 0.191406,0.1875 0.05992,0.07393 0.126716,0.143746 0.203125,0.207031 0.05625,0.06807 0.121028,0.130526 0.191407,0.189453 0.05707,0.06981 0.12345,0.133084 0.195312,0.19336 0.05779,0.07057 0.122411,0.138417 0.195313,0.199218 0.05395,0.0653 0.116605,0.124733 0.183593,0.181641 0.05687,0.07001 0.121643,0.134828 0.19336,0.195313 0.05518,0.06721 0.118554,0.129141 0.1875,0.1875 0.05497,0.06695 0.118871,0.129323 0.1875,0.1875 0.05295,0.06434 0.114081,0.123444 0.179687,0.179687 0.05388,0.06619 0.118337,0.125898 0.185547,0.183594 0.0548,0.06719 0.118964,0.129089 0.1875,0.1875 0.05249,0.06368 0.112834,0.121997 0.177735,0.177734 0.05292,0.06447 0.114062,0.123328 0.179687,0.179688 0.05121,0.06239 0.110702,0.11902 0.173828,0.173828 0.05168,0.06337 0.11184,0.122142 0.175781,0.177734 0.05231,0.064 0.114868,0.121687 0.179688,0.177735 0.04962,0.06021 0.107212,0.114833 0.167969,0.167968 0.05087,0.0624 0.111058,0.118961 0.173828,0.173828 0.05117,0.06248 0.108761,0.120883 0.171875,0.175782 0.05107,0.06181 0.111033,0.117552 0.173828,0.171875 0.04701,0.05643 0.101352,0.108026 0.158203,0.158203 0.05105,0.06243 0.110862,0.11896 0.173828,0.173828 0.0473,0.05678 0.102889,0.107753 0.160156,0.158203 0.04733,0.05743 0.102668,0.109142 0.160157,0.160156 0.05003,0.06109 0.106506,0.118023 0.167968,0.171875 0.04472,0.05356 0.09873,0.10051 0.152344,0.148438 0.04674,0.05709 0.101445,0.109358 0.158203,0.160156 0.04761,0.05801 0.104161,0.110621 0.16211,0.16211 0.04431,0.05341 0.09725,0.100587 0.15039,0.148437 0.04802,0.05862 0.103538,0.112086 0.16211,0.164063 0.04395,0.05255 0.09591,0.09936 0.148437,0.146484 0.04458,0.05387 0.09683,0.102166 0.150391,0.15039 0.04314,0.05212 0.09297,0.09963 0.144531,0.146485 0.0453,0.05518 0.09961,0.104993 0.154297,0.154297 0.04297,0.05158 0.0933,0.09814 0.144531,0.144531 0.04286,0.05166 0.09339,0.09806 0.144531,0.144531 0.04212,0.05076 0.09246,0.09682 0.142579,0.142578 0.0427,0.0516 0.09358,0.0981 0.144531,0.144532 0.04192,0.05033 0.09082,0.09719 0.140625,0.142578 0.04038,0.04836 0.08905,0.09097 0.136718,0.134765 0.03999,0.0482 0.08755,0.09107 0.134766,0.134766 0.0417,0.05059 0.09099,0.09692 0.140625,0.142578 0.0395,0.04731 0.08632,0.08986 0.132813,0.132813 0.0397,0.04774 0.08796,0.08949 0.134765,0.132812 0.03893,0.04673 0.08511,0.08837 0.13086,0.13086 0.03934,0.04723 0.08651,0.08991 0.132812,0.132812 0.03641,0.04354 0.07874,0.08319 0.121094,0.123047 0.038,0.04599 0.08432,0.08698 0.128906,0.128906 0.03839,0.04627 0.0858,0.08678 0.130859,0.128906 0.03526,0.04216 0.07635,0.08043 0.117188,0.119141 0.03871,0.04684 0.08532,0.08824 0.130859,0.130859 0.03477,0.0413 0.07706,0.07726 0.117188,0.115235 0.03575,0.04292 0.07762,0.08174 0.119141,0.121094 0.03417,0.04092 0.07581,0.07755 0.115234,0.115234 0.03496,0.04215 0.07667,0.08041 0.117187,0.11914 0.03507,0.04216 0.0785,0.07845 0.119141,0.117188 0.0338,0.0404 0.07435,0.07604 0.113281,0.113281 0.03497,0.04181 0.07673,0.07877 0.117188,0.117188 0.03047,0.03605 0.06698,0.06804 0.101562,0.101562 0.03294,0.0397 0.07344,0.07465 0.111328,0.111328 0.03286,0.03945 0.07163,0.07488 0.109375,0.111329 0.03222,0.03843 0.0725,0.07185 0.109375,0.107421 0.02924,0.03473 0.0646,0.06526 0.09766,0.09766 0.0322,0.03881 0.07049,0.07344 0.107422,0.109375 0.03031,0.03615 0.06712,0.06794 0.101562,0.101562 0.03148,0.03755 0.06954,0.07065 0.105469,0.105469 0.02667,0.03147 0.06003,0.05834 0.08984,0.08789 0.03161,0.0381 0.0693,0.0721 0.105469,0.107422 0.02725,0.03216 0.06126,0.05969 0.0918,0.08984 0.02743,0.03272 0.06097,0.06113 0.0918,0.0918 0.02997,0.03598 0.06555,0.06806 0.09961,0.101563 0.02667,0.03147 0.06003,0.05834 0.08984,0.08789 0.02691,0.03197 0.05969,0.05984 0.08984,0.08984 0.02633,0.03128 0.05845,0.05849 0.08789,0.08789 0.02459,0.02921 0.05473,0.05446 0.08203,0.08203 0.02824,0.0339 0.06188,0.064 0.09375,0.0957 0.0238,0.02798 0.05378,0.05167 0.08008,0.07813 0.02343,0.02783 0.05223,0.05178 0.07813,0.07813 0.02707,0.0325 0.05943,0.06132 0.08984,0.0918 0.0015,0.0018 0.0023,0.004 0.0039,0.0059 0.02152,0.02137 0.04332,0.0422 0.06641,0.0625 0.02506,0.03009 0.0541,0.05757 0.08203,0.08594 0.0228,0.02702 0.05104,0.05056 0.07617,0.07617 0.02359,0.02796 0.054,0.05168 0.08008,0.07813 0.0197,0.02316 0.04498,0.04233 0.06641,0.06445 0.02246,0.02685 0.04947,0.05069 0.07422,0.07617 0.02168,0.02575 0.04847,0.04778 0.07227,0.07227 0.02165,0.02561 0.04852,0.04791 0.07227,0.07227 0.01823,0.02143 0.04084,0.04 0.06055,0.06055 0.02067,0.02465 0.04575,0.04681 0.06836,0.07031 0.01989,0.02357 0.04474,0.0439 0.06641,0.06641 0.02024,0.02389 0.04629,0.04361 0.06836,0.06641 9.54e-4,0.0011 9.96e-4,0.0028 0.002,0.0039 0.01598,0.01641 0.03389,0.03107 0.05078,0.04687 0.02106,0.02517 0.04528,0.0483 0.06836,0.07227 0,0 0.002,0.002 0.002,0.002 0.01654,0.01711 0.0352,0.03236 0.05273,0.04883 0.01619,0.01915 0.03536,0.03623 0.05273,0.05469 0.0196,0.02337 0.04311,0.04407 0.06445,0.06641 0,0 0.002,0.002 0.002,0.002 0.01551,0.01617 0.03244,0.03128 0.04883,0.04687 0.0147,0.01735 0.03316,0.03206 0.04883,0.04883 0.01784,0.0212 0.03931,0.04021 0.05859,0.06055 0,0 0.002,0.002 0.002,0.002 0.01209,0.01406 0.02829,0.02538 0.04102,0.03906 0.02981,0.03542 0.06583,0.06662 0.09961,0.09961 0.01355,0.01593 0.03055,0.02948 0.04492,0.04492 0.01203,0.01415 0.02638,0.02725 0.03906,0.04102 0.01346,0.01596 0.03064,0.02945 0.04492,0.04492 0.01293,0.01526 0.02928,0.02815 0.04297,0.04297 0.0015,0.0018 0.0024,0.0041 0.0039,0.0059 0.01088,0.01167 0.02382,0.02182 0.03516,0.0332 0.02087,0.02454 0.04751,0.04499 0.07031,0.06836 0.01237,0.01469 0.026,0.02868 0.03906,0.04297 0.0012,0.0014 0.0027,0.0025 0.0039,0.0039 0.009,0.0097 0.02003,0.01783 0.0293,0.02734 0.01678,0.01972 0.03861,0.03571 0.05664,0.05469 0.0193,0.02302 0.04346,0.04244 0.06445,0.06445 0.0068,0.008 0.01448,0.0156 0.02148,0.02344 0.01551,0.0183 0.03615,0.03312 0.05273,0.05078 9.54e-4,0.0011 9.95e-4,0.0028 0.002,0.0039 0.0059,0.0063 0.01347,0.01138 0.01953,0.01758 9.54e-4,0.0011 9.95e-4,0.0028 0.002,0.0039 0.0054,0.0055 0.01203,0.01016 0.01758,0.01563 0.0045,0.0052 0.0091,0.01044 0.01367,0.01563 0.0065,0.0077 0.01478,0.01391 0.02148,0.02148 0.0051,0.0059 0.01045,0.01172 0.01563,0.01758 0,0 0.002,0.002 0.002,0.002 0.0036,0.0041 0.0081,0.0077 0.01172,0.01172 0,0 0.002,0.002 0.002,0.002 0.007,0.0082 0.01812,0.01341 0.02539,0.02148 0,0 0,0.002 0,0.002 0.0024,0.0027 0.0054,0.0051 0.0078,0.0078 0,0 0.002,0.002 0.002,0.002 0.0018,0.002 0.0041,0.0038 0.0059,0.0059 0,0 0.002,0.002 0.002,0.002 0,0 0.002,0 0.002,0 0.0045,0.0053 0.0091,0.01034 0.01367,0.01562 6.01e-4,7.02e-4 0.0014,0.0013 0.002,0.002 0.0012,0.0014 0.0027,0.0025 0.0039,0.0039 0.02045,0.0231 0.04813,0.04438 0.07031,0.06641 0.01598,0.01365 0.02825,0.02984 0.04492,0.04297 0.0014,0.0013 0.0025,0.0027 0.0039,0.0039 0.0014,0.0013 0.0025,0.0027 0.0039,0.0039 0.02693,0.02416 0.04911,0.05162 0.07813,0.07422 0.0015,0.0012 0.0024,0.0027 0.0039,0.0039 7.4e-4,5.84e-4 0.0012,0.0014 0.002,0.002 0.07759,0.06098 0.162788,0.115508 0.253906,0.164062 8.14e-4,4.34e-4 0.0011,0.0015 0.002,0.002 0.276133,0.146602 0.608695,0.232422 0.966797,0.232422 0.956193,0 1.732422,-0.607453 1.732422,-1.359375 v -1.896484 h 10.503906 c 0.02036,0.02297 0.04628,0.04255 0.06836,0.06445 0.02374,0.02803 0.05383,0.05161 0.08008,0.07813 0.02822,0.03388 0.0619,0.06402 0.09375,0.0957 0.02379,0.02798 0.05378,0.05167 0.08008,0.07813 0.02342,0.02783 0.05223,0.05178 0.07813,0.07813 0.02562,0.03076 0.05537,0.05894 0.08398,0.08789 0.0236,0.02797 0.05398,0.05166 0.08008,0.07812 0.02369,0.02815 0.05191,0.05345 0.07813,0.08008 0.0228,0.02702 0.05104,0.05056 0.07617,0.07617 0.02397,0.02841 0.05353,0.05322 0.08008,0.08008 0.0012,0.0014 0.0027,0.0025 0.0039,0.0039 0.01944,0.01952 0.03981,0.038 0.06055,0.05664 0.02365,0.0284 0.05192,0.05321 0.07813,0.08008 0.02113,0.025 0.04718,0.04651 0.07031,0.07031 0.02232,0.02641 0.04967,0.04915 0.07422,0.07422 9.53e-4,0.0011 9.95e-4,0.0028 0.002,0.0039 0.01769,0.01796 0.0359,0.03551 0.05469,0.05273 0.02158,0.02585 0.04856,0.04769 0.07227,0.07227 0.01967,0.02327 0.04305,0.04417 0.06445,0.06641 0.01877,0.02215 0.04216,0.04129 0.0625,0.0625 0.01784,0.02106 0.04128,0.03838 0.06055,0.05859 0.0202,0.02401 0.04436,0.04546 0.06641,0.06836 0,0 0.002,0.002 0.002,0.002 0.01654,0.01711 0.03521,0.03236 0.05273,0.04883 0.01619,0.01915 0.03537,0.03623 0.05273,0.05469 0.01958,0.02336 0.04313,0.04409 0.06445,0.06641 0,0 0.002,0.002 0.002,0.002 0.01361,0.01419 0.02868,0.02727 0.04297,0.04102 0.01723,0.02056 0.03806,0.03884 0.05664,0.05859 0.01696,0.02003 0.03839,0.03738 0.05664,0.05664 0,0 0.002,0.002 0.002,0.002 0.01208,0.01406 0.02829,0.02538 0.04102,0.03906 0.0298,0.0354 0.06584,0.06664 0.09961,0.09961 0.01355,0.01593 0.03055,0.02948 0.04492,0.04492 0.01203,0.01415 0.02638,0.02725 0.03906,0.04102 0.01346,0.01596 0.03064,0.02945 0.04492,0.04492 0.01293,0.01526 0.02929,0.02815 0.04297,0.04297 0.0015,0.0018 0.0024,0.0041 0.0039,0.0059 0.01088,0.01167 0.02382,0.02182 0.03516,0.0332 0.0112,0.01317 0.02535,0.02427 0.03711,0.03711 0.01117,0.01313 0.02538,0.0243 0.03711,0.03711 0.0109,0.01282 0.02372,0.0246 0.03516,0.03711 0.0012,0.0014 0.0027,0.0025 0.0039,0.0039 0.0089,0.0097 0.02003,0.01783 0.0293,0.02734 0.0094,0.01111 0.0214,0.02038 0.03125,0.03125 0.0016,0.0018 0.0023,0.004 0.0039,0.0059 0.0083,0.0091 0.01878,0.01649 0.02734,0.02539 0.01735,0.0204 0.0399,0.03704 0.05859,0.05664 0.0068,0.008 0.01448,0.0156 0.02148,0.02344 0.01586,0.01872 0.03575,0.03469 0.05273,0.05273 0,0 0.002,0.002 0.002,0.002 0.006,0.0063 0.01344,0.01135 0.01953,0.01758 9.54e-4,0.0011 9.95e-4,0.0028 0.002,0.0039 0.0055,0.0056 0.012,0.01014 0.01758,0.01563 0.0045,0.0052 0.0091,0.01044 0.01367,0.01563 0.0065,0.0077 0.01478,0.01391 0.02148,0.02148 0.0051,0.0059 0.01046,0.01172 0.01562,0.01758 0,0 0.002,0.002 0.002,0.002 0.0036,0.0041 0.0081,0.0077 0.01172,0.01172 0,0 0.002,0.002 0.002,0.002 0.0055,0.0061 0.01388,0.0096 0.01953,0.01563 0.0042,0.005 0.0074,0.01068 0.01172,0.01563 0,0 0.002,0.002 0.002,0.002 0.0027,0.0031 0.009,0.0067 0.01172,0.0098 0.0042,0.0049 0.0094,0.0088 0.01367,0.01367 0.0074,0.0086 0.01778,0.015 0.02539,0.02344 0.0061,0.0068 0.01331,0.01287 0.01953,0.01953 0.05103,0.05351 0.101794,0.107311 0.162109,0.154297 0.0015,0.0012 0.0024,0.0027 0.0039,0.0039 7.4e-4,5.84e-4 0.0012,0.0014 0.002,0.002 0.07759,0.06098 0.162764,0.115508 0.253906,0.164062 8.15e-4,4.34e-4 0.0011,0.0015 0.002,0.002 0.276206,0.146602 0.610178,0.232422 0.96875,0.232422 0.95494,0 1.728516,-0.607453 1.728516,-1.359375 V 64.97966 h 0.363281 c 0,0 1.389539,0.190394 1.478516,-0.636719 0,-2.268923 0.143196,-7.298419 0.02539,-12.044922 0.582114,-0.182339 1.00586,-0.717881 1.00586,-1.363281 v -2.783203 c 1.58e-4,-0.189268 -0.03678,-0.370336 -0.103516,-0.535157 -0.06605,-0.163124 -0.160936,-0.310957 -0.279297,-0.4375 -6.22e-4,-6.65e-4 -0.0013,-0.0013 -0.002,-0.002 0,0 -0.002,-0.002 -0.002,-0.002 0,0 -0.002,-0.002 -0.002,-0.002 -0.0012,-0.0013 -0.0046,-0.0045 -0.0059,-0.0059 -0.0012,-0.0013 -0.0046,-0.0045 -0.0059,-0.0059 -0.0016,-0.0017 -0.0042,-0.0022 -0.0059,-0.0039 -0.0028,-0.0031 -0.0049,-0.0067 -0.0078,-0.0098 -0.0034,-0.0037 -0.0082,-0.0061 -0.01172,-0.0098 -0.0038,-0.0041 -0.0079,-0.0076 -0.01172,-0.01172 -0.0044,-0.0048 -0.0092,-0.009 -0.01367,-0.01367 -0.005,-0.0055 -0.0105,-0.01024 -0.01563,-0.01563 -0.005,-0.0055 -0.0105,-0.01024 -0.01563,-0.01563 -0.006,-0.0065 -0.01341,-0.01118 -0.01953,-0.01758 -0.0064,-0.0069 -0.01303,-0.01274 -0.01953,-0.01953 -0.007,-0.0076 -0.01434,-0.01405 -0.02148,-0.02148 -0.007,-0.0076 -0.01434,-0.01405 -0.02148,-0.02148 -0.007,-0.0076 -0.01436,-0.01404 -0.02148,-0.02148 -0.01012,-0.0111 -0.02079,-0.02047 -0.03125,-0.03125 -0.0079,-0.0086 -0.01723,-0.015 -0.02539,-0.02344 -0.0092,-0.01001 -0.0179,-0.01955 -0.02734,-0.0293 -0.0094,-0.01029 -0.01959,-0.01928 -0.0293,-0.0293 -0.01037,-0.01135 -0.02248,-0.02024 -0.0332,-0.03125 -0.01075,-0.01179 -0.02207,-0.02178 -0.0332,-0.0332 -0.01073,-0.01177 -0.02209,-0.02179 -0.0332,-0.0332 -0.01133,-0.01247 -0.0234,-0.02309 -0.03516,-0.03516 -0.01227,-0.01351 -0.02628,-0.02407 -0.03906,-0.03711 -0.01265,-0.01396 -0.02587,-0.02561 -0.03906,-0.03906 -0.01287,-0.0142 -0.02563,-0.02734 -0.03906,-0.04102 -0.01312,-0.0145 -0.02732,-0.02706 -0.04102,-0.04102 -0.01407,-0.01556 -0.03018,-0.02804 -0.04492,-0.04297 -0.01441,-0.01596 -0.02981,-0.02962 -0.04492,-0.04492 -0.01442,-0.01598 -0.02979,-0.02961 -0.04492,-0.04492 -0.01561,-0.01736 -0.0324,-0.03225 -0.04883,-0.04883 -0.01564,-0.01739 -0.03236,-0.03222 -0.04883,-0.04883 -0.01596,-0.01774 -0.03396,-0.0319 -0.05078,-0.04883 -0.01656,-0.01846 -0.03329,-0.03516 -0.05078,-0.05273 -0.01713,-0.01912 -0.03656,-0.03455 -0.05469,-0.05273 -0.0035,-0.0039 -0.0043,-0.0098 -0.0078,-0.01367 -6.06e-4,-6.63e-4 -0.0013,-0.0013 -0.002,-0.002 -0.170665,-1.450086 -0.39953,-2.680053 -0.720703,-3.474609 -0.06002,-0.148736 -0.121275,-0.283469 -0.1875,-0.402344 -4.84e-4,-8.67e-4 -0.0015,-0.0011 -0.002,-0.002 -0.06621,-0.118296 -0.136282,-0.220331 -0.208984,-0.306641 -5.3e-4,-6.36e-4 -0.0034,-0.0033 -0.0039,-0.0039 0,0 -0.002,-0.002 -0.002,-0.002 -0.0014,-0.0016 -0.0025,-0.0042 -0.0039,-0.0059 -0.002,-0.0023 -0.0058,-0.0035 -0.0078,-0.0059 -0.0011,-0.0013 -0.0028,-0.0026 -0.0039,-0.0039 -8.47e-4,-10e-4 -0.0011,-0.0029 -0.002,-0.0039 0,0 -0.002,-0.002 -0.002,-0.002 -0.0028,-0.0033 -0.0069,-0.0065 -0.0098,-0.0098 0,0 -0.002,-0.002 -0.002,-0.002 -0.0014,-0.0017 -0.0044,-0.0022 -0.0059,-0.0039 -0.0011,-0.0013 -0.0028,-0.0026 -0.0039,-0.0039 -0.0022,-0.0026 -0.0056,-0.0052 -0.0078,-0.0078 0,0 -0.002,-0.002 -0.002,-0.002 0,0 0,-0.002 0,-0.002 0,0 -0.002,-0.002 -0.002,-0.002 -0.0031,-0.0037 -0.0086,-0.0061 -0.01172,-0.0098 0,0 -0.002,-0.002 -0.002,-0.002 0,0 0,-0.002 0,-0.002 -0.0039,-0.0046 -0.01165,-0.01102 -0.01562,-0.01562 -0.0045,-0.0053 -0.01301,-0.0123 -0.01758,-0.01758 -0.0045,-0.0053 -0.01301,-0.0123 -0.01758,-0.01758 -0.0053,-0.0063 -0.01605,-0.01328 -0.02148,-0.01953 -0.0029,-0.0033 -0.0069,-0.0065 -0.0098,-0.0098 -0.0037,-0.0039 -0.008,-0.0078 -0.01172,-0.01172 -0.0017,-0.002 -0.0042,-0.0039 -0.0059,-0.0059 -0.0018,-0.002 -0.004,-0.0039 -0.0059,-0.0059 -0.003,-0.0033 -0.0067,-0.0065 -0.0098,-0.0098 0,0 -0.002,-0.002 -0.002,-0.002 -0.0028,-0.0033 -0.0089,-0.0084 -0.01172,-0.01172 0,0 -0.002,-0.002 -0.002,-0.002 0,0 -0.002,0 -0.002,0 -0.0011,-0.0013 -0.0028,-0.0026 -0.0039,-0.0039 0,0 -0.002,-0.002 -0.002,-0.002 0,0 0,-0.002 0,-0.002 -8.3e-4,-9.9e-4 -0.0011,-0.0029 -0.002,-0.0039 -0.0067,-0.0079 -0.01846,-0.01749 -0.02539,-0.02539 -0.0072,-0.0086 -0.01984,-0.01882 -0.02734,-0.02734 -0.0084,-0.0099 -0.0206,-0.01947 -0.0293,-0.0293 -0.0089,-0.01055 -0.02195,-0.02077 -0.03125,-0.03125 -0.0084,-0.0099 -0.02252,-0.02139 -0.03125,-0.03125 -0.0089,-0.01059 -0.02386,-0.02269 -0.0332,-0.0332 -0.01002,-0.01187 -0.02463,-0.02338 -0.03516,-0.03516 -0.01062,-0.01257 -0.02593,-0.02464 -0.03711,-0.03711 -0.01062,-0.01258 -0.02593,-0.02464 -0.03711,-0.03711 -0.01118,-0.01324 -0.02726,-0.02594 -0.03906,-0.03906 -0.01169,-0.01385 -0.02864,-0.0273 -0.04102,-0.04102 -0.01225,-0.0145 -0.02997,-0.0286 -0.04297,-0.04297 -0.0123,-0.01456 -0.02992,-0.02855 -0.04297,-0.04297 -0.01309,-0.0155 -0.03294,-0.02958 -0.04687,-0.04492 -0.01254,-0.01484 -0.03161,-0.03022 -0.04492,-0.04492 0,0 -0.002,-0.002 -0.002,-0.002 -0.01091,-0.01291 -0.02952,-0.02626 -0.04102,-0.03906 -0.0022,-0.0027 -0.0036,-0.0071 -0.0059,-0.0098 -0.01421,-0.01682 -0.03558,-0.03219 -0.05078,-0.04883 -0.01254,-0.01484 -0.03161,-0.02827 -0.04492,-0.04297 0,0 0,-0.002 0,-0.002 -0.0019,-0.0023 -0.004,-0.0056 -0.0059,-0.0078 -0.01509,-0.01787 -0.03652,-0.03507 -0.05273,-0.05273 -0.01538,-0.01821 -0.03814,-0.03474 -0.05469,-0.05273 -0.01365,-0.01616 -0.03426,-0.03088 -0.04883,-0.04687 0,0 -0.002,-0.002 -0.002,-0.002 -0.0017,-0.002 -0.0022,-0.0058 -0.0039,-0.0078 -0.0165,-0.01953 -0.04075,-0.03736 -0.05859,-0.05664 -0.01538,-0.01821 -0.0401,-0.0367 -0.05664,-0.05469 -9.67e-4,-9.64e-4 -9.82e-4,-0.0029 -0.002,-0.0039 -0.01454,-0.01721 -0.0352,-0.03377 -0.05078,-0.05078 -0.0024,-0.0029 -0.0054,-0.0069 -0.0078,-0.0098 -0.01643,-0.01946 -0.04083,-0.03743 -0.05859,-0.05664 -0.0014,-0.0016 -0.0025,-0.0042 -0.0039,-0.0059 -0.01789,-0.02118 -0.04303,-0.04161 -0.0625,-0.0625 -0.01845,-0.02184 -0.04433,-0.04292 -0.06445,-0.06445 -0.01727,-0.02045 -0.04375,-0.03841 -0.0625,-0.05859 -0.0017,-0.002 -0.0022,-0.0058 -0.0039,-0.0078 -0.01929,-0.02284 -0.04723,-0.04391 -0.06836,-0.06641 -0.01755,-0.02078 -0.04343,-0.04005 -0.0625,-0.06055 -0.0022,-0.0027 -0.0036,-0.0071 -0.0059,-0.0098 -0.01873,-0.02218 -0.04594,-0.04259 -0.06641,-0.06445 -0.0014,-0.0016 -0.0025,-0.0042 -0.0039,-0.0059 -0.01929,-0.02284 -0.04723,-0.04391 -0.06836,-0.06641 -0.0014,-0.0016 -0.0025,-0.0042 -0.0039,-0.0059 -0.02097,-0.02482 -0.05108,-0.04784 -0.07422,-0.07227 -0.01894,-0.02242 -0.0457,-0.04431 -0.06641,-0.06641 -0.0024,-0.0029 -0.0054,-0.0069 -0.0078,-0.0098 -0.02041,-0.02416 -0.0498,-0.04653 -0.07227,-0.07031 -0.0014,-0.0016 -0.0025,-0.0042 -0.0039,-0.0059 -0.02033,-0.02407 -0.0499,-0.04662 -0.07227,-0.07031 -0.0019,-0.0023 -0.004,-0.0055 -0.0059,-0.0078 -0.02125,-0.02516 -0.05269,-0.04752 -0.07617,-0.07227 -0.0017,-0.002 -0.0022,-0.0058 -0.0039,-0.0078 -0.02153,-0.02549 -0.05236,-0.04915 -0.07617,-0.07422 -0.0014,-0.0016 -0.0025,-0.0042 -0.0039,-0.0059 -0.02367,-0.02803 -0.05755,-0.05451 -0.08398,-0.08203 -0.02097,-0.02482 -0.05108,-0.04784 -0.07422,-0.07227 -0.0027,-0.0033 -0.0051,-0.0084 -0.0078,-0.01172 -0.02229,-0.02638 -0.05535,-0.05024 -0.08008,-0.07617 -0.0022,-0.0027 -0.0036,-0.0071 -0.0059,-0.0098 -0.02432,-0.0288 -0.06066,-0.05768 -0.08789,-0.08594 -0.02256,-0.02671 -0.05501,-0.05188 -0.08008,-0.07813 -0.0027,-0.0033 -0.0051,-0.0084 -0.0078,-0.01172 -0.02376,-0.02813 -0.05744,-0.05441 -0.08398,-0.08203 -0.0019,-0.0023 -0.004,-0.0055 -0.0059,-0.0078 -0.02544,-0.03012 -0.06317,-0.06031 -0.0918,-0.08984 -0.02368,-0.02803 -0.05755,-0.05451 -0.08398,-0.08203 -0.0027,-0.0033 -0.0051,-0.0084 -0.0078,-0.01172 -0.02488,-0.02946 -0.05996,-0.05704 -0.08789,-0.08594 -0.0019,-0.0023 -0.004,-0.0055 -0.0059,-0.0078 -0.02757,-0.03264 -0.06635,-0.06375 -0.09766,-0.0957 -0.02432,-0.0288 -0.0587,-0.05573 -0.08594,-0.08398 -0.0033,-0.004 -0.0065,-0.0098 -0.0098,-0.01367 -0.0259,-0.03066 -0.0626,-0.05979 -0.0918,-0.08984 -0.0024,-0.0029 -0.0054,-0.0069 -0.0078,-0.0098 -0.02656,-0.03144 -0.06372,-0.061 -0.09375,-0.0918 -0.0019,-0.0023 -0.004,-0.0055 -0.0059,-0.0078 -0.02712,-0.03211 -0.06497,-0.06231 -0.0957,-0.09375 -0.0019,-0.0023 -0.004,-0.0055 -0.0059,-0.0078 -0.02701,-0.03198 -0.0651,-0.06243 -0.0957,-0.09375 -0.0024,-0.0029 -0.0054,-0.0069 -0.0078,-0.0098 -0.02991,-0.03541 -0.07116,-0.06892 -0.105468,-0.103515 -0.02758,-0.03265 -0.06634,-0.06375 -0.09766,-0.0957 -0.0027,-0.0033 -0.0051,-0.0084 -0.0078,-0.01172 -0.02852,-0.03376 -0.06905,-0.06463 -0.101563,-0.09766 -0.0022,-0.0027 -0.0036,-0.0071 -0.0059,-0.0098 -0.02841,-0.03364 -0.06918,-0.06475 -0.101562,-0.09766 -0.0027,-0.0033 -0.0051,-0.0084 -0.0078,-0.01172 -0.03159,-0.0374 -0.07484,-0.07288 -0.111328,-0.109375 -0.02897,-0.0343 -0.07042,-0.06607 -0.103516,-0.09961 -0.0031,-0.0037 -0.0047,-0.01002 -0.0078,-0.01367 -0.0302,-0.03575 -0.07275,-0.0686 -0.107422,-0.103516 -0.0022,-0.0027 -0.0036,-0.0071 -0.0059,-0.0098 -0.03008,-0.03562 -0.0729,-0.06872 -0.107422,-0.103516 -0.0027,-0.0033 -0.0051,-0.0084 -0.0078,-0.01172 -0.03064,-0.03628 -0.07413,-0.07005 -0.109375,-0.105469 -0.0027,-0.0033 -0.0051,-0.0084 -0.0078,-0.01172 -0.03131,-0.03707 -0.0752,-0.07124 -0.111328,-0.107422 -0.0022,-0.0027 -0.0036,-0.0071 -0.0059,-0.0098 -0.03259,-0.03859 -0.07938,-0.07371 -0.117187,-0.111328 -0.0017,-0.002 -0.0022,-0.0058 -0.0039,-0.0078 -0.03259,-0.03858 -0.07744,-0.07567 -0.115234,-0.113282 -0.0019,-0.0023 -0.0039,-0.0055 -0.0059,-0.0078 -0.03148,-0.03726 -0.07499,-0.07301 -0.111329,-0.109375 -0.0033,-0.004 -0.0065,-0.0098 -0.0098,-0.01367 -0.03231,-0.03825 -0.0778,-0.07402 -0.115235,-0.111328 -0.0033,-0.004 -0.0065,-0.0098 -0.0098,-0.01367 -0.03327,-0.03939 -0.0785,-0.07686 -0.117188,-0.115235 -0.0024,-0.0029 -0.0054,-0.0069 -0.0078,-0.0098 -0.03383,-0.04005 -0.07971,-0.07818 -0.119141,-0.117188 -0.0024,-0.0029 -0.0054,-0.0069 -0.0078,-0.0098 -0.03411,-0.04038 -0.08128,-0.07786 -0.121094,-0.117188 -0.0027,-0.0033 -0.0051,-0.0085 -0.0078,-0.01172 -0.03411,-0.04038 -0.08128,-0.07786 -0.121094,-0.117188 -0.0027,-0.0033 -0.0051,-0.0084 -0.0078,-0.01172 -0.03565,-0.04221 -0.08508,-0.08199 -0.126953,-0.123047 -0.0019,-0.0023 -0.0039,-0.0055 -0.0059,-0.0078 -0.03593,-0.04254 -0.0847,-0.08364 -0.126953,-0.125 -0.0019,-0.0023 -0.0039,-0.0055 -0.0059,-0.0078 -0.03621,-0.04287 -0.08627,-0.08332 -0.128906,-0.125 -0.0022,-0.0027 -0.0036,-0.0071 -0.0059,-0.0098 -0.03537,-0.04188 -0.0835,-0.08231 -0.125,-0.123047 -0.0033,-0.004 -0.0065,-0.0098 -0.0098,-0.01367 -0.03634,-0.04303 -0.08609,-0.08317 -0.128906,-0.125 -0.0027,-0.0033 -0.0051,-0.0084 -0.0078,-0.01172 -0.03761,-0.04452 -0.09024,-0.08567 -0.134765,-0.128906 -0.0022,-0.0027 -0.0036,-0.0071 -0.0059,-0.0098 -0.03649,-0.0432 -0.0859,-0.08497 -0.128906,-0.126953 -0.0033,-0.004 -0.0065,-0.0098 -0.0098,-0.01367 -0.03705,-0.04386 -0.08904,-0.08434 -0.132812,-0.126953 -0.0036,-0.0044 -0.0062,-0.01135 -0.0098,-0.01563 -0.03802,-0.04501 -0.08967,-0.08716 -0.134765,-0.130859 -0.0027,-0.0033 -0.0051,-0.0084 -0.0078,-0.01172 -0.03928,-0.0465 -0.09381,-0.08967 -0.140625,-0.134765 -0.0022,-0.0027 -0.0036,-0.0071 -0.0059,-0.0098 -0.03788,-0.04485 -0.08986,-0.08731 -0.134766,-0.13086 -0.0036,-0.0044 -0.0062,-0.01135 -0.0098,-0.01562 -0.03872,-0.04584 -0.09262,-0.08834 -0.138672,-0.132813 -0.0036,-0.0044 -0.0062,-0.01135 -0.0098,-0.01563 -0.0411,-0.04866 -0.09713,-0.0935 -0.146484,-0.140625 -0.0017,-0.002 -0.0022,-0.0058 -0.0039,-0.0078 -0.0397,-0.047 -0.09322,-0.09115 -0.140625,-0.136718 -0.0033,-0.004 -0.0065,-0.0098 -0.0098,-0.01367 -0.04094,-0.04847 -0.0954,-0.09563 -0.144531,-0.142578 -0.0024,-0.0029 -0.0054,-0.0069 -0.0078,-0.0098 -0.04011,-0.04749 -0.0946,-0.09265 -0.142578,-0.138672 -0.0036,-0.0044 -0.0062,-0.01135 -0.0098,-0.01563 -0.0415,-0.04914 -0.09852,-0.09501 -0.148437,-0.142578 -0.0027,-0.0033 -0.0051,-0.0084 -0.0078,-0.01172 -0.04123,-0.04881 -0.09696,-0.09532 -0.146484,-0.142578 -0.0036,-0.0044 -0.0062,-0.01135 -0.0098,-0.01563 -0.04194,-0.04965 -0.09791,-0.09648 -0.148437,-0.144531 -0.0033,-0.004 -0.0065,-0.0098 -0.0098,-0.01367 -0.04361,-0.05163 -0.101401,-0.100488 -0.154297,-0.15039 -0.0019,-0.0023 -0.0039,-0.0055 -0.0059,-0.0078 -0.04206,-0.04979 -0.09774,-0.0983 -0.148438,-0.146484 -0.0038,-0.0046 -0.0079,-0.01109 -0.01172,-0.01563 -0.04373,-0.05178 -0.103185,-0.100357 -0.15625,-0.150391 -0.0027,-0.0033 -0.0051,-0.0085 -0.0078,-0.01172 -0.04361,-0.05163 -0.101401,-0.100488 -0.154297,-0.15039 -0.0033,-0.004 -0.0065,-0.0098 -0.0098,-0.01367 -0.0425,-0.05031 -0.09908,-0.09782 -0.150391,-0.146485 -0.0046,-0.0057 -0.009,-0.01399 -0.01367,-0.01953 -0.04373,-0.05177 -0.103184,-0.100357 -0.15625,-0.15039 -0.0041,-0.005 -0.0076,-0.01269 -0.01172,-0.01758 -0.04473,-0.05296 -0.103711,-0.103161 -0.158203,-0.154297 -0.0033,-0.004 -0.0065,-0.0098 -0.0098,-0.01367 -0.04529,-0.05362 -0.104863,-0.104499 -0.160157,-0.15625 -0.0033,-0.004 -0.0065,-0.0098 -0.0098,-0.01367 -0.04585,-0.05428 -0.106011,-0.105836 -0.16211,-0.158203 -0.0033,-0.004 -0.0065,-0.0098 -0.0098,-0.01367 -0.04725,-0.05594 -0.109839,-0.108202 -0.167969,-0.16211 -0.0022,-0.0027 -0.0036,-0.0071 -0.0059,-0.0098 -0.04568,-0.05408 -0.106252,-0.10602 -0.16211,-0.158203 -0.0041,-0.005 -0.0076,-0.01267 -0.01172,-0.01758 -0.04669,-0.05528 -0.108698,-0.106863 -0.166016,-0.160157 -0.0036,-0.0044 -0.0062,-0.01135 -0.0098,-0.01563 -0.04725,-0.05594 -0.109838,-0.108201 -0.167968,-0.162109 -0.0036,-0.0044 -0.0062,-0.01135 -0.0098,-0.01563 -0.04893,-0.05793 -0.113243,-0.112223 -0.173828,-0.167969 -0.0022,-0.0027 -0.0036,-0.0071 -0.0059,-0.0098 -0.04735,-0.05606 -0.109689,-0.110043 -0.167968,-0.164063 -0.0041,-0.005 -0.0076,-0.01267 -0.01172,-0.01758 -0.04837,-0.05727 -0.112111,-0.110882 -0.171875,-0.166016 -0.0036,-0.0044 -0.0062,-0.01135 -0.0098,-0.01563 -0.04893,-0.05793 -0.113243,-0.112222 -0.173828,-0.167968 -0.0036,-0.0044 -0.0062,-0.01135 -0.0098,-0.01563 -0.05032,-0.05958 -0.11509,-0.116558 -0.177734,-0.173828 -0.0024,-0.0029 -0.0054,-0.0069 -0.0078,-0.0098 -0.04903,-0.05804 -0.113102,-0.11407 -0.173828,-0.169922 -0.0041,-0.005 -0.0076,-0.01267 -0.01172,-0.01758 -0.05005,-0.05925 -0.115499,-0.114906 -0.177735,-0.171875 -0.0036,-0.0044 -0.0062,-0.01135 -0.0098,-0.01563 -0.0493,-0.05837 -0.114646,-0.113767 -0.175781,-0.169922 -0.0046,-0.0057 -0.009,-0.014 -0.01367,-0.01953 -0.05088,-0.06024 -0.116212,-0.117902 -0.179688,-0.175782 -0.0038,-0.0046 -0.0079,-0.01109 -0.01172,-0.01563 -0.05088,-0.06024 -0.116212,-0.117901 -0.179687,-0.175781 -0.0038,-0.0046 -0.0079,-0.01109 -0.01172,-0.01563 -0.05181,-0.06134 -0.120678,-0.118838 -0.185547,-0.177734 -0.0036,-0.0044 -0.0062,-0.01134 -0.0098,-0.01563 -0.05237,-0.062 -0.119847,-0.122141 -0.185547,-0.181641 -0.0033,-0.004 -0.0065,-0.0098 -0.0098,-0.01367 -0.05181,-0.06134 -0.11873,-0.120794 -0.183594,-0.179687 -0.0041,-0.005 -0.0076,-0.01267 -0.01172,-0.01758 -0.05181,-0.06134 -0.120679,-0.118838 -0.185547,-0.177735 -0.005,-0.0061 -0.0087,-0.01557 -0.01367,-0.02148 -0.05284,-0.06256 -0.121086,-0.121625 -0.1875,-0.181641 -0.0041,-0.005 -0.0076,-0.01267 -0.01172,-0.01758 -0.0534,-0.06322 -0.122194,-0.12297 -0.189453,-0.183594 -0.0041,-0.005 -0.0076,-0.01267 -0.01172,-0.01758 -0.05396,-0.06388 -0.1233,-0.124316 -0.191406,-0.185547 -0.0041,-0.005 -0.0076,-0.01267 -0.01172,-0.01758 -0.05564,-0.06587 -0.1266,-0.128357 -0.197265,-0.191406 -0.0027,-0.0033 -0.0051,-0.0085 -0.0078,-0.01172 -0.0534,-0.06322 -0.122194,-0.12297 -0.189453,-0.183594 -0.0055,-0.0067 -0.01013,-0.01691 -0.01563,-0.02344 -0.05508,-0.06521 -0.125503,-0.12701 -0.195313,-0.189453 -0.0041,-0.005 -0.0076,-0.01267 -0.01172,-0.01758 -0.05675,-0.06719 -0.128786,-0.131055 -0.201172,-0.195313 -0.0027,-0.0033 -0.0051,-0.0084 -0.0078,-0.01172 -0.05515,-0.06529 -0.125389,-0.128882 -0.195312,-0.191406 -0.0046,-0.0057 -0.009,-0.014 -0.01367,-0.01953 -0.05627,-0.06662 -0.129536,-0.129628 -0.201172,-0.193359 -0.0041,-0.005 -0.0076,-0.01266 -0.01172,-0.01758 -0.05738,-0.06793 -0.129771,-0.134286 -0.203125,-0.199219 -0.0033,-0.004 -0.0065,-0.0098 -0.0098,-0.01367 -0.05794,-0.06859 -0.13086,-0.135638 -0.205078,-0.201172 -0.0033,-0.004 -0.0065,-0.0098 -0.0098,-0.01367 -0.05682,-0.06727 -0.12868,-0.132934 -0.201172,-0.197265 -0.0046,-0.0057 -0.009,-0.01399 -0.01367,-0.01953 -0.05794,-0.06859 -0.13281,-0.133683 -0.207031,-0.199218 -0.0041,-0.005 -0.0076,-0.01266 -0.01172,-0.01758 -0.05794,-0.06859 -0.13086,-0.135638 -0.205078,-0.201171 -0.0046,-0.0057 -0.009,-0.01401 -0.01367,-0.01953 -0.05955,-0.0705 -0.134199,-0.137808 -0.210937,-0.205078 -0.0033,-0.004 -0.0065,-0.0098 -0.0098,-0.01367 -0.05849,-0.06925 -0.131945,-0.136991 -0.207031,-0.203125 -0.0046,-0.0057 -0.009,-0.014 -0.01367,-0.01953 -0.0585,-0.06925 -0.133896,-0.135036 -0.208984,-0.201172 -0.0055,-0.0067 -0.01011,-0.0169 -0.01563,-0.02344 -0.05955,-0.0705 -0.1342,-0.137808 -0.210938,-0.205079 -0.0046,-0.0057 -0.009,-0.01399 -0.01367,-0.01953 -0.06011,-0.07116 -0.135273,-0.13916 -0.21289,-0.207031 -0.0046,-0.0057 -0.009,-0.014 -0.01367,-0.01953 -0.06179,-0.07315 -0.138479,-0.143221 -0.21875,-0.212891 -0.0033,-0.004 -0.0065,-0.0098 -0.0098,-0.01367 -0.06072,-0.07189 -0.136259,-0.142408 -0.214844,-0.210937 -0.0046,-0.0057 -0.009,-0.01399 -0.01367,-0.01953 -0.06128,-0.07255 -0.139282,-0.14181 -0.21875,-0.210938 -0.0046,-0.0057 -0.009,-0.01401 -0.01367,-0.01953 -0.06179,-0.07315 -0.138479,-0.143221 -0.21875,-0.212891 -0.0046,-0.0057 -0.009,-0.01401 -0.01367,-0.01953 -0.05923,-0.07092 -0.134907,-0.13961 -0.213406,-0.208082 -0.006,-0.0074 -0.01154,-0.01822 -0.01758,-0.02539 -0.06239,-0.07387 -0.141416,-0.144523 -0.222656,-0.214844 -0.0046,-0.0057 -0.009,-0.01399 -0.01367,-0.01953 -0.06267,-0.0742 -0.140968,-0.146176 -0.222656,-0.216797 -0.005,-0.0061 -0.0087,-0.01557 -0.01367,-0.02148 -0.06346,-0.07513 -0.141658,-0.147286 -0.22461,-0.21875 -0.0046,-0.0057 -0.009,-0.01399 -0.01367,-0.01953 -0.06402,-0.0758 -0.142711,-0.148642 -0.226562,-0.220703 -0.0046,-0.0057 -0.009,-0.014 -0.01367,-0.01953 -0.06402,-0.0758 -0.142712,-0.148642 -0.226562,-0.220703 -0.0046,-0.0057 -0.009,-0.014 -0.01367,-0.01953 -0.06462,-0.07651 -0.145651,-0.149956 -0.230469,-0.222657 -0.0046,-0.0057 -0.009,-0.01399 -0.01367,-0.01953 -0.06462,-0.07651 -0.143698,-0.151909 -0.228516,-0.224609 -0.0051,-0.0063 -0.01045,-0.01534 -0.01563,-0.02148 -0.06654,-0.07878 -0.148389,-0.153772 -0.236328,-0.228515 -0.0036,-0.0044 -0.0062,-0.01134 -0.0098,-0.01563 -0.06546,-0.0775 -0.146246,-0.15297 -0.232422,-0.226563 -0.005,-0.0061 -0.0087,-0.01557 -0.01367,-0.02148 -0.06602,-0.07816 -0.149242,-0.152375 -0.236328,-0.226563 -0.005,-0.0061 -0.0087,-0.01556 -0.01367,-0.02148 -0.06741,-0.0798 -0.148926,-0.158714 -0.238281,-0.234375 -0.0038,-0.0046 -0.0079,-0.01109 -0.01172,-0.01563 -0.06769,-0.08014 -0.150417,-0.158415 -0.240235,-0.234375 -0.0041,-0.005 -0.0076,-0.01266 -0.01172,-0.01758 -0.06685,-0.07914 -0.147887,-0.157352 -0.236328,-0.232422 -0.0052,-0.0063 -0.01043,-0.01532 -0.01563,-0.02148 -0.06741,-0.0798 -0.15088,-0.156761 -0.240235,-0.232422 -0.0052,-0.0063 -0.01042,-0.01531 -0.01563,-0.02148 -0.06796,-0.08046 -0.149963,-0.160076 -0.240234,-0.236328 -0.0052,-0.0063 -0.01043,-0.01532 -0.01563,-0.02148 -0.06961,-0.08242 -0.153095,-0.162237 -0.246094,-0.240234 -0.0038,-0.0046 -0.0079,-0.01109 -0.01172,-0.01563 -0.06992,-0.08277 -0.154543,-0.163869 -0.248047,-0.242187 -0.0041,-0.005 -0.0076,-0.01269 -0.01172,-0.01758 -0.06822,-0.08076 -0.151496,-0.157852 -0.242188,-0.234375 -0.0063,-0.0078 -0.01122,-0.01979 -0.01758,-0.02734 -0.06961,-0.08242 -0.153095,-0.162237 -0.246094,-0.240234 -0.0052,-0.0063 -0.01043,-0.01532 -0.01563,-0.02148 -0.07017,-0.08308 -0.154117,-0.163599 -0.248047,-0.242187 -0.0052,-0.0063 -0.01043,-0.01532 -0.01562,-0.02148 -0.07045,-0.08341 -0.155598,-0.163301 -0.25,-0.242188 -0.0055,-0.0067 -0.01013,-0.01691 -0.01563,-0.02344 -0.07073,-0.08374 -0.155137,-0.164963 -0.25,-0.24414 -0.0052,-0.0063 -0.01043,-0.01532 -0.01562,-0.02148 -0.07103,-0.08409 -0.158541,-0.164647 -0.253907,-0.244141 -0.0055,-0.0067 -0.01011,-0.01689 -0.01563,-0.02344 -0.0727,-0.08607 -0.159637,-0.1707 -0.257812,-0.251953 -0.0041,-0.005 -0.0076,-0.01266 -0.01172,-0.01758 -0.07159,-0.08475 -0.157608,-0.167966 -0.253906,-0.248047 -0.0055,-0.0067 -0.01011,-0.0169 -0.01563,-0.02344 -0.0713,-0.08442 -0.158083,-0.166311 -0.253906,-0.246094 -0.0065,-0.0081 -0.01296,-0.01954 -0.01953,-0.02734 -0.07269,-0.08606 -0.159654,-0.168758 -0.257812,-0.25 -0.0055,-0.0067 -0.01011,-0.0169 -0.01563,-0.02344 -0.07325,-0.08672 -0.160662,-0.170124 -0.259766,-0.251953 -0.0055,-0.0067 -0.01011,-0.01689 -0.01563,-0.02344 -0.07381,-0.08738 -0.161666,-0.17149 -0.261719,-0.253906 -0.0055,-0.0067 -0.01011,-0.01689 -0.01563,-0.02344 -0.07549,-0.08937 -0.164662,-0.175592 -0.267578,-0.259765 -0.0041,-0.005 -0.0076,-0.01267 -0.01172,-0.01758 -0.07549,-0.08937 -0.164663,-0.177546 -0.267579,-0.261719 -0.0044,-0.0054 -0.0073,-0.01425 -0.01172,-0.01953 -0.07493,-0.08871 -0.16562,-0.176178 -0.267579,-0.259766 -0.0049,-0.0061 -0.0087,-0.01557 -0.01367,-0.02148 -0.07549,-0.08937 -0.164663,-0.175593 -0.267579,-0.259766 -0.0055,-0.0067 -0.01011,-0.01689 -0.01562,-0.02344 -0.07625,-0.09028 -0.16725,-0.176744 -0.271485,-0.261719 -0.0049,-0.006 -0.0087,-0.01559 -0.01367,-0.02149 -0.07493,-0.08871 -0.165619,-0.176177 -0.267578,-0.259765 -0.0063,-0.0078 -0.01124,-0.01982 -0.01758,-0.02734 -0.07549,-0.08937 -0.166615,-0.177546 -0.269531,-0.261719 -0.006,-0.0074 -0.01154,-0.01822 -0.01758,-0.02539 -0.07625,-0.09028 -0.16725,-0.176744 -0.271485,-0.261719 -0.0063,-0.0078 -0.01122,-0.0198 -0.01758,-0.02734 -0.07674,-0.09085 -0.168369,-0.178192 -0.273437,-0.263672 -0.006,-0.0074 -0.01155,-0.01824 -0.01758,-0.02539 -0.07645,-0.09051 -0.166907,-0.180442 -0.271485,-0.265625 -0.0065,-0.0081 -0.01296,-0.01954 -0.01953,-0.02734 -0.07674,-0.09085 -0.16837,-0.178192 -0.273438,-0.263672 -0.0068,-0.0085 -0.01264,-0.02112 -0.01953,-0.0293 -0.07722,-0.09142 -0.169487,-0.17964 -0.275391,-0.265625 -0.0068,-0.0085 -0.01264,-0.02112 -0.01953,-0.0293 -0.0777,-0.09199 -0.170602,-0.18109 -0.277343,-0.267578 -0.0065,-0.0081 -0.01295,-0.01953 -0.01953,-0.02734 C 33.608633,10.857206 28.774225,10.088661 24.001953,10.0625 Z"
       id="path5379"
       inkscape:connector-curvature="0"
       clip-path="url(#clipPath6233)"
       transform="matrix(0.96344071,0,0,0.96344071,0.87742131,0.87742129)" />
    <path
       style="fill:#ffffff;fill-opacity:1;stroke:none;stroke-opacity:1"
       inkscape:connector-curvature="0"
       d="m 36.953897,15.951993 c -0.257212,-2.514586 -0.666951,-4.472456 -1.315184,-5.242016 -2.672657,-3.164203 -21.394431,-3.3957641 -23.520077,0 -0.519974,0.831958 -0.884648,2.782892 -1.129381,5.246175 -0.789665,0.09291 -1.4046194,0.757772 -1.4046194,1.571705 v 3.080314 c 0,0.684977 0.4340034,1.262492 1.0399434,1.487815 -0.14351,4.851687 -0.02703,9.913444 0.187886,12.430803 0,1.94331 1.305476,1.620928 1.305476,1.620928 h 1.223669 v 2.097913 c 0,0.831956 0.857607,1.505146 1.91419,1.505146 1.05797,0 1.915578,-0.67319 1.915578,-1.505146 v -2.097913 h 14.236147 v 2.097913 c 0,0.831956 0.856914,1.505146 1.914884,1.505146 1.056584,0 1.914193,-0.67319 1.914193,-1.505146 v -2.097913 h 0.402111 c 0,0 1.536345,0.21076 1.634793,-0.70439 0,-2.510427 0.158072,-8.07413 0.02773,-13.325849 0.644074,-0.201748 1.114128,-0.795211 1.114128,-1.509307 V 17.527857 C 38.416061,16.694512 37.771295,16.018548 36.9539,15.951993 Z M 16.690923,11.161314 h 14.375502 v 2.174871 H 16.690923 Z m 0.205216,22.509255 c -1.128685,0 -2.043143,-0.915154 -2.043143,-2.04384 0,-1.127992 0.914458,-2.04245 2.043143,-2.04245 1.128687,0 2.043837,0.914458 2.043837,2.04245 0,1.128686 -0.914457,2.04384 -2.043837,2.04384 z m 14.093328,0 c -1.127992,0 -2.044529,-0.915154 -2.044529,-2.04384 0,-1.127992 0.915844,-2.04245 2.044529,-2.04245 1.128688,0 2.043147,0.914458 2.043147,2.04245 6.91e-4,1.128686 -0.914459,2.04384 -2.043147,2.04384 z M 33.58725,24.727045 H 14.170099 V 14.542522 H 33.58725 Z"
       id="path4718"
       clip-path="url(#clipPath6237)"
       transform="matrix(0.87075746,0,0,0.87075746,3.1018192,3.1018195)" />
  </g>
</svg>
