<?xml version="1.0" encoding="UTF-8" standalone="no"?>
<!-- Created with Inkscape (http://www.inkscape.org/) -->

<svg
   xmlns:dc="http://purl.org/dc/elements/1.1/"
   xmlns:cc="http://creativecommons.org/ns#"
   xmlns:rdf="http://www.w3.org/1999/02/22-rdf-syntax-ns#"
   xmlns:svg="http://www.w3.org/2000/svg"
   xmlns="http://www.w3.org/2000/svg"
   xmlns:sodipodi="http://sodipodi.sourceforge.net/DTD/sodipodi-0.dtd"
   xmlns:inkscape="http://www.inkscape.org/namespaces/inkscape"
   width="80"
   height="87.411049"
   viewBox="0 0 80 87.411051"
   id="svg4160"
   version="1.1"
   inkscape:version="0.91 r13725"
   sodipodi:docname="twistoast_flat_nobg.svg">
  <sodipodi:namedview
     id="base"
     pagecolor="#ffffff"
     bordercolor="#666666"
     borderopacity="1.0"
     inkscape:pageopacity="0.0"
     inkscape:pageshadow="2"
     inkscape:zoom="2.8"
     inkscape:cx="30.934504"
     inkscape:cy="119.30052"
     inkscape:document-units="px"
     inkscape:current-layer="layer3"
     showgrid="false"
     units="px"
     inkscape:window-width="1920"
     inkscape:window-height="1017"
     inkscape:window-x="-8"
     inkscape:window-y="-8"
     inkscape:window-maximized="1"
     fit-margin-top="0"
     fit-margin-left="0"
     fit-margin-right="0"
     fit-margin-bottom="0" />
  <defs
     id="defs4162">
    <clipPath
       id="clipPath11272"
       clipPathUnits="userSpaceOnUse">
      <circle
         r="22.878796"
         cy="23.999983"
         cx="24"
         id="circle11274"
         style="fill:#28cdf1;fill-opacity:1" />
    </clipPath>
    <clipPath
       id="clipPath11276"
       clipPathUnits="userSpaceOnUse">
      <circle
         r="22.878796"
         cy="23.999983"
         cx="24"
         id="circle11278"
         style="fill:#28cdf1;fill-opacity:1" />
    </clipPath>
    <clipPath
       clipPathUnits="userSpaceOnUse"
       id="clipPath6233">
      <circle
         style="fill:#28cdf1;fill-opacity:1"
         id="circle6235"
         cx="24"
         cy="23.999983"
         r="22.878796" />
    </clipPath>
    <clipPath
       clipPathUnits="userSpaceOnUse"
       id="clipPath6237">
      <circle
         style="fill:#28cdf1;fill-opacity:1"
         id="circle6239"
         cx="24"
         cy="23.999981"
         r="25.314011" />
    </clipPath>
    <clipPath
       clipPathUnits="userSpaceOnUse"
       id="clipPath6241">
      <circle
         style="fill:#28cdf1;fill-opacity:1"
         id="circle6243"
         cx="24"
         cy="23.999981"
         r="25.314011" />
    </clipPath>
  </defs>
  <metadata
     id="metadata4165">
    <rdf:RDF>
      <cc:Work
         rdf:about="">
        <dc:format>image/svg+xml</dc:format>
        <dc:type
           rdf:resource="http://purl.org/dc/dcmitype/StillImage" />
        <dc:title></dc:title>
      </cc:Work>
    </rdf:RDF>
  </metadata>
  <g
     inkscape:groupmode="layer"
     id="layer2"
     inkscape:label="shadow"
     style="display:none"
     transform="translate(-1.6262838,40.499521)" />
  <g
     inkscape:label="circle"
     inkscape:groupmode="layer"
     id="layer1"
     transform="translate(-1.6262838,-963.86268)"
     style="display:none" />
  <g
     inkscape:groupmode="layer"
     id="layer3"
     inkscape:label="bus"
     transform="translate(-1.6262838,40.499521)">
    <path
       style="fill:#ffffff;fill-opacity:1;stroke:none;stroke-opacity:1"
       inkscape:connector-curvature="0"
       d="m 36.953897,15.951993 c -0.257212,-2.514586 -0.666951,-4.472456 -1.315184,-5.242016 -2.672657,-3.164203 -21.394431,-3.3957641 -23.520077,0 -0.519974,0.831958 -0.884648,2.782892 -1.129381,5.246175 -0.789665,0.09291 -1.4046194,0.757772 -1.4046194,1.571705 l 0,3.080314 c 0,0.684977 0.4340034,1.262492 1.0399434,1.487815 -0.14351,4.851687 -0.02703,9.913444 0.187886,12.430803 0,1.94331 1.305476,1.620928 1.305476,1.620928 l 1.223669,0 0,2.097913 c 0,0.831956 0.857607,1.505146 1.91419,1.505146 1.05797,0 1.915578,-0.67319 1.915578,-1.505146 l 0,-2.097913 14.236147,0 0,2.097913 c 0,0.831956 0.856914,1.505146 1.914884,1.505146 1.056584,0 1.914193,-0.67319 1.914193,-1.505146 l 0,-2.097913 0.402111,0 c 0,0 1.536345,0.21076 1.634793,-0.70439 0,-2.510427 0.158072,-8.07413 0.02773,-13.325849 0.644074,-0.201748 1.114128,-0.795211 1.114128,-1.509307 l 0,-3.080314 c 6.97e-4,-0.833345 -0.644069,-1.509309 -1.461464,-1.575864 z m -20.262974,-4.790679 14.375502,0 0,2.174871 -14.375502,0 0,-2.174871 z m 0.205216,22.509255 c -1.128685,0 -2.043143,-0.915154 -2.043143,-2.04384 0,-1.127992 0.914458,-2.04245 2.043143,-2.04245 1.128687,0 2.043837,0.914458 2.043837,2.04245 0,1.128686 -0.914457,2.04384 -2.043837,2.04384 z m 14.093328,0 c -1.127992,0 -2.044529,-0.915154 -2.044529,-2.04384 0,-1.127992 0.915844,-2.04245 2.044529,-2.04245 1.128688,0 2.043147,0.914458 2.043147,2.04245 6.91e-4,1.128686 -0.914459,2.04384 -2.043147,2.04384 z m 2.597783,-8.943524 -19.417151,0 0,-10.184523 19.417151,0 0,10.184523 z"
       id="splash_bus"
       clip-path="url(#clipPath6237)"
       transform="matrix(2.7748171,0,0,2.7748171,-24.969327,-63.389607)"
       inkscape:label="#path4718" />
  </g>
</svg>
